<svg xmlns="http://www.w3.org/2000/svg" xmlns:xlink="http://www.w3.org/1999/xlink" viewBox="0 0 2490.82 2490.82"><defs><style>.cls-1{isolation:isolate;}.cls-2{fill:#a2efe2;}.cls-3{fill:#a1efe1;}.cls-4{fill:#a0eee1;}.cls-5{fill:#9feee0;}.cls-6{fill:#9eede0;}.cls-7{fill:#9deddf;}.cls-8{fill:#9ceddf;}.cls-9{fill:#9becde;}.cls-10{fill:#9aecde;}.cls-11{fill:#99ebdd;}.cls-12{fill:#98ebdc;}.cls-13{fill:#97eadc;}.cls-14{fill:#96eadb;}.cls-15{fill:#95eadb;}.cls-16{fill:#94e9da;}.cls-17{fill:#93e9da;}.cls-18{fill:#92e8d9;}.cls-19{fill:#91e8d8;}.cls-20{fill:#90e7d7;}.cls-21{fill:#8fe7d7;}.cls-22{fill:#8ee6d6;}.cls-23{fill:#8de6d6;}.cls-24{fill:#8ce6d5;}.cls-25{fill:#8be5d5;}.cls-26{fill:#8ae5d4;}.cls-27{fill:#89e4d3;}.cls-28{fill:#88e4d3;}.cls-29{fill:#87e3d2;}.cls-30{fill:#86e3d2;}.cls-31{fill:#85e3d1;}.cls-32{fill:#84e2d1;}.cls-33{fill:#83e2d0;}.cls-34{fill:#82e1d0;}.cls-35{fill:#81e1cf;}.cls-36{mix-blend-mode:screen;fill:url(#radial-gradient);}.cls-37{mix-blend-mode:multiply;}.cls-129,.cls-38{fill:#fff;}.cls-38{opacity:0;}.cls-128,.cls-39{fill:#fefefe;}.cls-39{opacity:0.02;}.cls-40{fill:#fdfefe;opacity:0.04;}.cls-41{fill:#fcfdfd;opacity:0.05;}.cls-42{fill:#fbfdfc;opacity:0.07;}.cls-43{fill:#fafcfc;opacity:0.09;}.cls-44{fill:#f9fcfb;opacity:0.11;}.cls-45{fill:#f8fbfa;opacity:0.13;}.cls-46{fill:#f7fbfa;opacity:0.14;}.cls-47{fill:#f6faf9;opacity:0.16;}.cls-48{fill:#f5faf9;opacity:0.18;}.cls-49{fill:#f4f9f8;opacity:0.2;}.cls-50{fill:#f3f9f7;opacity:0.21;}.cls-51{fill:#f2f8f7;opacity:0.23;}.cls-52{fill:#f1f8f6;opacity:0.25;}.cls-53{fill:#f0f7f5;opacity:0.27;}.cls-54{fill:#eff7f5;opacity:0.29;}.cls-55{fill:#eef6f4;opacity:0.3;}.cls-56{fill:#edf6f3;opacity:0.32;}.cls-57{fill:#ecf5f3;opacity:0.34;}.cls-58{fill:#ebf5f2;opacity:0.36;}.cls-59{fill:#eaf4f1;opacity:0.38;}.cls-60{fill:#e9f4f1;opacity:0.39;}.cls-61{fill:#e8f3f0;opacity:0.41;}.cls-62{fill:#e7f3f0;opacity:0.43;}.cls-63{fill:#e6f2ef;opacity:0.45;}.cls-64{fill:#e5f2ee;opacity:0.46;}.cls-65{fill:#e4f1ee;opacity:0.48;}.cls-66{fill:#e4f1ed;opacity:0.5;}.cls-67{fill:#e3f1ec;opacity:0.52;}.cls-68{fill:#e2f0ec;opacity:0.54;}.cls-69{fill:#e1f0eb;opacity:0.55;}.cls-70{fill:#e0efea;opacity:0.57;}.cls-71{fill:#dfefea;opacity:0.59;}.cls-72{fill:#deeee9;opacity:0.61;}.cls-73{fill:#ddeee9;opacity:0.62;}.cls-74{fill:#dcede8;opacity:0.64;}.cls-75{fill:#dbede7;opacity:0.66;}.cls-76{fill:#daece7;opacity:0.68;}.cls-77{fill:#d9ece6;opacity:0.7;}.cls-78{fill:#d8ebe5;opacity:0.71;}.cls-79{fill:#d7ebe5;opacity:0.73;}.cls-80{fill:#d6eae4;opacity:0.75;}.cls-81{fill:#d5eae3;opacity:0.77;}.cls-82{fill:#d4e9e3;opacity:0.79;}.cls-83{fill:#d3e9e2;opacity:0.8;}.cls-84{fill:#d2e8e1;opacity:0.82;}.cls-85{fill:#d1e8e1;opacity:0.84;}.cls-86{fill:#d0e7e0;opacity:0.86;}.cls-87{fill:#cfe7e0;opacity:0.87;}.cls-88{fill:#cee6df;opacity:0.89;}.cls-89{fill:#cde6de;opacity:0.91;}.cls-90{fill:#cce5de;opacity:0.93;}.cls-91{fill:#cbe5dd;opacity:0.95;}.cls-92{fill:#cae4dc;opacity:0.96;}.cls-93{fill:#c9e4dc;opacity:0.98;}.cls-94{fill:#c8e3db;}.cls-95{fill:#dde3e1;}.cls-96{fill:#dee4e2;}.cls-97{fill:#dfe5e3;}.cls-98{fill:#e0e5e4;}.cls-99{fill:#e1e6e4;}.cls-100{fill:#e2e7e5;}.cls-101{fill:#e3e8e6;}.cls-102{fill:#e4e9e7;}.cls-103{fill:#e5e9e8;}.cls-104{fill:#e6eae9;}.cls-105{fill:#e7ebea;}.cls-106{fill:#e8ecea;}.cls-107{fill:#e9edeb;}.cls-108{fill:#eaedec;}.cls-109{fill:#ebeeed;}.cls-110{fill:#ecefee;}.cls-111{fill:#edf0ef;}.cls-112{fill:#eef1f0;}.cls-113{fill:#eff2f1;}.cls-114{fill:#f0f3f2;}.cls-115{fill:#f1f4f3;}.cls-116{fill:#f2f5f4;}.cls-117{fill:#f3f5f5;}.cls-118{fill:#f4f6f6;}.cls-119{fill:#f5f7f6;}.cls-120{fill:#f6f8f7;}.cls-121{fill:#f7f9f8;}.cls-122{fill:#f8f9f9;}.cls-123{fill:#f9fafa;}.cls-124{fill:#fafbfb;}.cls-125{fill:#fbfcfc;}.cls-126{fill:#fcfdfc;}.cls-127{fill:#fdfdfd;}</style><radialGradient id="radial-gradient" cx="1275.85" cy="1298.63" r="3720.47" gradientUnits="userSpaceOnUse"><stop offset="0.31"/><stop offset="0.32" stop-color="#182926"/><stop offset="0.33" stop-color="#539185"/><stop offset="0.34" stop-color="#81e1cf"/></radialGradient></defs><g class="cls-1"><g id="Capa_2" data-name="Capa 2"><g id="Object"><circle class="cls-2" cx="1245.41" cy="1245.41" r="1245.41"/><circle class="cls-3" cx="1245.46" cy="1245.18" r="1242.16"/><circle class="cls-4" cx="1245.52" cy="1244.96" r="1238.92"/><circle class="cls-5" cx="1245.57" cy="1244.73" r="1235.67"/><circle class="cls-6" cx="1245.63" cy="1244.51" r="1232.42"/><circle class="cls-7" cx="1245.68" cy="1244.28" r="1229.17"/><circle class="cls-8" cx="1245.74" cy="1244.06" r="1225.93"/><circle class="cls-9" cx="1245.79" cy="1243.83" r="1222.68"/><circle class="cls-10" cx="1245.85" cy="1243.61" r="1219.43"/><circle class="cls-11" cx="1245.9" cy="1243.38" r="1216.19"/><circle class="cls-12" cx="1245.96" cy="1243.16" r="1212.94"/><circle class="cls-13" cx="1246.01" cy="1242.93" r="1209.69"/><circle class="cls-14" cx="1246.07" cy="1242.71" r="1206.44"/><circle class="cls-15" cx="1246.12" cy="1242.48" r="1203.2"/><circle class="cls-16" cx="1246.17" cy="1242.26" r="1199.95"/><circle class="cls-17" cx="1246.23" cy="1242.03" r="1196.7"/><circle class="cls-18" cx="1246.28" cy="1241.8" r="1193.45"/><circle class="cls-18" cx="1246.34" cy="1241.58" r="1190.21"/><circle class="cls-19" cx="1246.39" cy="1241.35" r="1186.96"/><circle class="cls-20" cx="1246.45" cy="1241.13" r="1183.71"/><circle class="cls-21" cx="1246.5" cy="1240.9" r="1180.47"/><circle class="cls-22" cx="1246.56" cy="1240.68" r="1177.22"/><circle class="cls-23" cx="1246.61" cy="1240.45" r="1173.97"/><circle class="cls-24" cx="1246.67" cy="1240.23" r="1170.72"/><circle class="cls-25" cx="1246.72" cy="1240" r="1167.48"/><circle class="cls-26" cx="1246.78" cy="1239.78" r="1164.23"/><circle class="cls-27" cx="1246.83" cy="1239.55" r="1160.98"/><circle class="cls-28" cx="1246.88" cy="1239.33" r="1157.74"/><circle class="cls-29" cx="1246.94" cy="1239.1" r="1154.49"/><circle class="cls-30" cx="1246.99" cy="1238.88" r="1151.24"/><circle class="cls-31" cx="1247.05" cy="1238.65" r="1147.99"/><circle class="cls-32" cx="1247.1" cy="1238.42" r="1144.75"/><circle class="cls-33" cx="1247.16" cy="1238.2" r="1141.5"/><circle class="cls-34" cx="1247.21" cy="1237.97" r="1138.25"/><circle class="cls-35" cx="1247.27" cy="1237.75" r="1135"/><circle class="cls-36" cx="1245.41" cy="1245.41" r="1245.41"/><g class="cls-37"><path class="cls-38" d="M1141.24,1891.25a106,106,0,0,1-150.89-8.64L612.08,1451.12c-56.45-64.4-60-210.84-1.43-273.35C710,1071.65,879.56,1100.51,936,1164.91l195.25,221.19,770.6-698.94a155.06,155.06,0,0,1,219,10.68c57.53,63.43,98.91,215.67,35.49,273.2Z"/><path class="cls-39" d="M1140.35,1889.73a105.93,105.93,0,0,1-150.83-8.63L611.94,1450.41c-56.43-64.37-59.76-209.91-1.16-272.29,98.7-105.21,266.94-76.75,323.37-12.38l196.36,222.46L1900.8,689.54c63.41-57.5,160.5-53.76,218,9.64s98.07,214.64,34.67,272.15Z"/><path class="cls-40" d="M1139.46,1888.22a105.89,105.89,0,0,1-150.77-8.63L611.79,1449.7c-56.4-64.34-59.56-209-.88-271.22,98.05-104.3,265-76.25,321.38-11.9l197.48,223.72,770-698.38c63.39-57.48,159.52-54.77,217,8.61s97.22,213.6,33.85,271.09Z"/><path class="cls-41" d="M1138.57,1886.71a105.85,105.85,0,0,1-150.71-8.63L611.65,1449c-56.38-64.32-59.36-208-.6-270.16,97.39-103.39,263-75.74,319.38-11.42l198.59,225,769.66-698.09c63.36-57.46,158.53-55.79,216,7.57s96.38,212.57,33,270Z"/><path class="cls-42" d="M1137.67,1885.2A105.81,105.81,0,0,1,987,1876.57L611.51,1448.28c-56.36-64.29-59.17-207.11-.33-269.1,96.74-102.47,261-75.22,317.39-10.93l199.7,226.25,769.35-697.81c63.33-57.43,157.55-56.79,215,6.53s95.53,211.54,32.21,269Z"/><path class="cls-43" d="M1136.78,1883.68a105.75,105.75,0,0,1-150.58-8.62L611.36,1447.57c-56.33-64.26-59-206.18-.05-268,96.1-101.57,259.07-74.72,315.4-10.46l200.82,227.52,769-697.52c63.31-57.42,156.56-57.81,214,5.49s94.69,210.5,31.39,267.92Z"/><path class="cls-44" d="M1135.89,1882.17a105.71,105.71,0,0,1-150.52-8.62L611.22,1446.86c-56.31-64.24-58.77-205.24.23-267,95.44-100.66,257.09-74.21,313.4-10l201.93,228.77L1895.5,701.46c63.28-57.39,155.57-58.82,213,4.46S2202.3,915.38,2139,972.78Z"/><path class="cls-45" d="M1135,1880.66A105.67,105.67,0,0,1,984.54,1872L611.08,1446.15c-56.29-64.21-58.43-204.17.5-265.9,95-99.54,255.13-73.71,311.42-9.5l203,230,768.4-696.95c63.26-57.36,154.59-59.83,212,3.42s93,208.44,29.74,265.8Z"/><path class="cls-46" d="M1134.11,1879.14a105.62,105.62,0,0,1-150.4-8.61L610.93,1445.44c-56.26-64.18-58.21-203.22.78-264.84,94.4-98.6,253.16-73.2,309.43-9l204.15,231.31,768.09-696.66c63.23-57.34,153.6-60.84,210.95,2.38s92.14,207.4,28.92,264.74Z"/><path class="cls-47" d="M1133.22,1877.63A105.59,105.59,0,0,1,982.88,1869L610.79,1444.73c-56.24-64.16-58-202.28,1.06-263.78,93.77-97.66,251.19-72.69,307.43-8.53L1124.55,1405l767.77-696.38c63.2-57.32,152.62-61.85,209.94,1.35s91.3,206.36,28.1,263.68Z"/><path class="cls-48" d="M1132.32,1876.12a105.55,105.55,0,0,1-150.27-8.6L610.65,1444c-56.22-64.13-57.78-201.33,1.33-262.71,93.15-96.73,249.22-72.19,305.44-8.06l206.38,233.84L1891.26,711c63.18-57.29,151.63-62.86,208.93.31s90.45,205.34,27.28,262.63Z"/><path class="cls-49" d="M1131.43,1874.6A105.49,105.49,0,0,1,981.22,1866L610.5,1443.31c-56.19-64.1-57.56-200.38,1.61-261.65,92.52-95.79,247.26-71.68,303.45-7.57l207.5,235.1L1890.2,713.38c63.15-57.27,150.65-63.88,207.92-.73s89.61,204.3,26.47,261.57Z"/><path class="cls-50" d="M1130.54,1873.09a105.46,105.46,0,0,1-150.15-8.59l-370-421.9c-56.17-64.07-57.35-199.43,1.89-260.58,91.89-94.87,245.28-71.18,301.45-7.1l208.61,236.37,766.83-695.53c63.13-57.25,149.66-64.88,206.91-1.76s88.76,203.26,25.65,260.51Z"/><path class="cls-51" d="M1129.65,1871.58A105.42,105.42,0,0,1,979.56,1863l-369.34-421.1c-56.15-64.05-57.14-198.48,2.16-259.52,91.26-93.93,243.31-70.67,299.46-6.61l209.72,237.62,766.52-695.24c63.1-57.22,148.67-65.89,205.9-2.8s87.92,202.24,24.83,259.46Z"/><path class="cls-52" d="M1128.76,1870.07a105.38,105.38,0,0,1-150-8.59l-368.65-420.3c-56.13-64-56.93-197.53,2.43-258.46,90.63-93,241.35-70.16,297.47-6.13l210.84,238.89L1887,720.53c63.08-57.2,147.69-66.91,204.89-3.84s87.07,201.2,24,258.4Z"/><path class="cls-53" d="M1127.87,1868.55a105.33,105.33,0,0,1-150-8.58l-368-419.5c-56.1-64-56.72-196.59,2.72-257.39,90-92.08,239.37-69.66,295.48-5.66l211.94,240.16L1886,722.91c63-57.17,146.7-67.92,203.88-4.87S2176.07,918.2,2113,975.38Z"/><path class="cls-54" d="M1127,1867a105.28,105.28,0,0,1-149.9-8.58l-367.28-418.7c-56.08-64-56.51-195.64,3-256.33,89.36-91.15,237.41-69.15,293.49-5.17l213.06,241.42L1884.9,725.3c63-57.16,145.72-68.93,202.87-5.92s85.38,199.14,22.37,256.29Z"/><path class="cls-55" d="M1126.08,1865.53A105.25,105.25,0,0,1,976.24,1857l-366.59-417.9c-56.06-63.94-56.3-194.7,3.26-255.27,88.73-90.22,235.44-68.64,291.5-4.69l214.17,242.69,765.26-694.1c63-57.13,144.73-69.94,201.86-6.95s84.54,198.1,21.55,255.23Z"/><path class="cls-56" d="M1125.19,1864a105.2,105.2,0,0,1-149.78-8.57L609.5,1438.35c-56-63.92-56.09-193.76,3.55-254.21,88.09-89.3,233.47-68.13,289.5-4.21l215.29,244,764.94-693.82c63-57.1,143.74-70.95,200.85-8s83.69,197.06,20.73,254.17Z"/><path class="cls-57" d="M1124.3,1862.5a105.15,105.15,0,0,1-149.72-8.57L609.36,1437.64c-56-63.9-55.88-192.82,3.82-253.15,87.45-88.37,231.5-67.62,287.51-3.73L1117.09,1426l764.63-693.53c63-57.09,142.76-72,199.84-9s82.85,196,19.91,253.12Z"/><path class="cls-58" d="M1123.41,1861a105.11,105.11,0,0,1-149.66-8.57L609.22,1436.93c-56-63.87-55.67-191.87,4.09-252.08,86.81-87.46,229.53-67.12,285.52-3.25l217.52,246.47,764.31-693.24c62.92-57.06,141.77-73,198.84-10.06s82,195,19.08,252.06Z"/><path class="cls-59" d="M1122.52,1859.47a105.06,105.06,0,0,1-149.6-8.56L609.07,1436.22c-56-63.84-55.46-190.93,4.38-251,86.17-86.53,227.56-66.61,283.52-2.77l218.63,247.74,764-693c62.89-57,140.79-74,197.83-11.1s81.15,194,18.26,251Z"/><path class="cls-60" d="M1121.62,1858a105,105,0,0,1-149.53-8.56L608.93,1435.51c-55.94-63.82-55.26-190,4.65-250,85.53-85.61,225.59-66.1,281.53-2.28l219.75,249L1878.54,739.6c62.87-57,139.8-75,196.82-12.14s80.3,192.93,17.44,249.95Z"/><path class="cls-61" d="M1120.73,1856.45a105,105,0,0,1-149.47-8.56L608.79,1434.8c-55.92-63.79-55.06-189,4.92-248.89,84.89-84.7,223.63-65.6,279.55-1.81l220.85,250.27L1877.48,742c62.84-57,138.82-76,195.81-13.17s79.45,191.9,16.62,248.89Z"/><path class="cls-62" d="M1119.84,1854.93a104.93,104.93,0,0,1-149.41-8.55L608.64,1434.09c-55.89-63.76-54.84-188.11,5.21-247.83,84.24-83.78,221.65-65.09,277.55-1.33l222,251.54,763.06-692.1c62.82-57,137.83-77,194.8-14.22S2149.83,921,2087,978Z"/><path class="cls-63" d="M1119,1853.42a104.89,104.89,0,0,1-149.35-8.55L608.5,1433.38c-55.88-63.74-54.64-187.17,5.48-246.76,83.59-82.87,219.69-64.59,275.56-.85l223.08,252.8,762.74-691.82c62.79-56.94,136.84-78,193.79-15.25s77.76,189.83,15,246.78Z"/><path class="cls-64" d="M1118.06,1851.91a104.85,104.85,0,0,1-149.29-8.55L608.36,1432.67c-55.86-63.71-54.44-186.23,5.75-245.7,82.95-82,217.72-64.08,273.57-.37l224.19,254.06L1874.3,749.13c62.77-56.91,135.86-79,192.78-16.28s76.92,188.8,14.17,245.72Z"/><path class="cls-65" d="M1117.17,1850.4a104.82,104.82,0,0,1-149.23-8.55L608.21,1432c-55.83-63.68-54.23-185.29,6-244.64,82.29-81,215.74-63.57,271.57.12l225.31,255.32,762.11-691.24c62.74-56.9,134.87-80.06,191.77-17.33s76.07,187.77,13.35,244.67Z"/><path class="cls-66" d="M1116.27,1848.88a104.75,104.75,0,0,1-149.16-8.54l-359-409.09c-55.81-63.66-54-184.35,6.31-243.57,81.65-80.13,213.78-63.07,269.58.59l226.42,256.59,761.8-691c62.71-56.87,133.89-81.06,190.76-18.36s75.23,186.73,12.53,243.61Z"/><path class="cls-67" d="M1115.38,1847.37a104.71,104.71,0,0,1-149.1-8.54L607.93,1430.54c-55.79-63.63-53.84-183.42,6.58-242.51,81-79.21,211.81-62.56,267.59,1.08L1109.64,1447l761.48-690.68c62.69-56.84,132.9-82.07,189.75-19.39s74.38,185.7,11.71,242.55Z"/><path class="cls-68" d="M1114.49,1845.86a104.68,104.68,0,0,1-149-8.54L607.78,1429.83c-55.76-63.6-53.63-182.48,6.87-241.45,80.34-78.3,209.84-62.05,265.59,1.56l228.65,259.12,761.17-690.39c62.66-56.83,131.92-83.09,188.74-20.44s73.54,184.67,10.89,241.5Z"/><path class="cls-69" d="M1113.6,1844.34a104.64,104.64,0,0,1-149-8.52l-357-406.7c-55.74-63.58-53.44-181.55,7.14-240.38,79.69-77.4,207.87-61.55,263.61,2l229.76,260.38L1869,761.05c62.64-56.8,130.93-84.1,187.73-21.47S2129.42,923.21,2066.8,980Z"/><path class="cls-70" d="M1112.71,1842.83a104.6,104.6,0,0,1-148.92-8.52L607.5,1428.41c-55.72-63.55-53.24-180.61,7.41-239.32,79-76.49,205.91-61,261.62,2.52l230.87,261.65,760.54-689.82c62.61-56.78,129.94-85.11,186.72-22.51s71.85,182.6,9.25,239.38Z"/><path class="cls-71" d="M1111.82,1841.32A104.55,104.55,0,0,1,963,1832.8l-355.6-405.1c-55.7-63.52-53.05-179.68,7.69-238.25,78.37-75.59,203.93-60.53,259.62,3l232,262.91,760.23-689.53c62.58-56.75,129-86.12,185.71-23.55s71,181.57,8.43,238.33Z"/><path class="cls-72" d="M1110.93,1839.8a104.5,104.5,0,0,1-148.8-8.51L607.21,1427c-55.67-63.5-52.85-178.75,8-237.19,77.72-74.68,202-60,257.63,3.48l233.1,264.17L1865.82,768.2c62.56-56.73,128-87.13,184.71-24.58s70.15,180.53,7.6,237.26Z"/><path class="cls-73" d="M1110,1838.29a104.46,104.46,0,0,1-148.73-8.51l-354.23-403.5c-55.65-63.47-52.65-177.82,8.24-236.13,77.06-73.77,200-59.51,255.64,4l234.21,265.44,759.6-689c62.53-56.71,127-88.15,183.7-25.62s69.3,179.49,6.78,236.2Z"/><path class="cls-74" d="M1109.14,1836.78a104.42,104.42,0,0,1-148.67-8.51l-353.54-402.7c-55.63-63.44-52.46-176.89,8.52-235.06,76.39-72.88,198-59,253.64,4.44l235.33,266.7L1863.7,773c62.51-56.68,126-89.15,182.69-26.66s68.46,178.47,6,235.15Z"/><path class="cls-75" d="M1108.25,1835.27a104.37,104.37,0,0,1-148.61-8.51L606.78,1424.87c-55.6-63.43-52.26-176,8.8-234,75.73-72,196.06-58.5,251.65,4.92l236.44,268,759-688.4c62.48-56.66,125-90.16,181.68-27.69s67.61,177.43,5.14,234.09Z"/><path class="cls-76" d="M1107.36,1833.75a104.33,104.33,0,0,1-148.55-8.5L606.64,1424.16c-55.58-63.4-52.08-175,9.07-232.94,75.07-71.08,194.09-58,249.66,5.4l237.56,269.23,758.65-688.11c62.45-56.64,124-91.18,180.67-28.73s66.77,176.39,4.32,233Z"/><path class="cls-77" d="M1106.47,1832.24a104.29,104.29,0,0,1-148.49-8.5L606.5,1423.45c-55.56-63.37-51.89-174.12,9.35-231.88,74.4-70.18,192.12-57.49,247.67,5.88l238.66,270.49,758.34-687.82c62.43-56.61,123-92.19,179.66-29.77s65.92,175.37,3.5,232Z"/><path class="cls-78" d="M1105.58,1830.73a104.26,104.26,0,0,1-148.43-8.5l-350.8-399.49c-55.53-63.34-51.69-173.19,9.63-230.82,73.74-69.28,190.15-57,245.68,6.37L1101.44,1470l758-687.54c62.4-56.58,122.06-93.19,178.65-30.8s65.08,174.33,2.68,230.92Z"/><path class="cls-79" d="M1104.68,1829.21a104.19,104.19,0,0,1-148.36-8.49L606.21,1422c-55.51-63.32-51.51-172.27,9.9-229.75,73.08-68.4,188.18-56.48,243.69,6.84l240.89,273L1858.4,784.89c62.38-56.57,121.07-94.21,177.64-31.84s64.23,173.29,1.87,229.86Z"/><path class="cls-80" d="M1103.79,1827.7a104.15,104.15,0,0,1-148.3-8.49L606.07,1421.32C550.58,1358,554.74,1250,616.25,1192.63c72.4-67.5,186.21-56,241.69,7.32l242,274.29,757.4-687c62.35-56.54,120.09-95.22,176.63-32.88s63.39,172.27,1,228.81Z"/><path class="cls-81" d="M1102.9,1826.19a104.12,104.12,0,0,1-148.24-8.49L605.92,1420.61c-55.46-63.26-51.13-170.43,10.46-227.63,71.73-66.6,184.24-55.46,239.7,7.81l243.12,275.55,757.08-686.68c62.33-56.52,119.1-96.24,175.62-33.92s62.54,171.23.23,227.75Z"/><path class="cls-82" d="M1102,1824.67a104.08,104.08,0,0,1-148.19-8.48l-348-396.29c-55.44-63.24-50.95-169.51,10.73-226.56,71.07-65.72,182.28-55,237.71,8.28l244.23,276.82L1855.22,792c62.3-56.5,118.11-97.24,174.61-34.95s61.7,170.19-.59,226.69Z"/><path class="cls-83" d="M1101.12,1823.16A104,104,0,0,1,953,1814.68L605.64,1419.19c-55.42-63.21-50.77-168.6,11-225.5,70.39-64.83,180.3-54.45,235.71,8.77l245.35,278.08,756.45-686.12c62.27-56.47,117.13-98.25,173.6-36s60.85,169.17-1.41,225.64Z"/><path class="cls-84" d="M1100.23,1821.65a104,104,0,0,1-148.07-8.48L605.49,1418.48c-55.39-63.18-50.59-167.68,11.29-224.43,69.72-64,178.33-53.94,233.72,9.24L1097,1482.63,1853.1,796.81c62.25-56.45,116.14-99.27,172.59-37s60,168.13-2.23,224.58Z"/><path class="cls-85" d="M1099.33,1820.13a103.94,103.94,0,0,1-148-8.47l-346-393.89C550,1354.61,554.94,1251,616.91,1194.4c69.05-63.06,176.37-53.43,231.73,9.73l247.58,280.6L1852,799.19c62.22-56.42,115.16-100.28,171.58-38.06s59.16,167.09-3,223.52Z"/><path class="cls-86" d="M1098.44,1818.62a103.9,103.9,0,0,1-147.94-8.47L605.21,1417.06c-55.35-63.13-50.23-165.86,11.84-222.31,68.37-62.17,174.39-52.92,229.74,10.21l248.68,281.87L1851,801.57c62.2-56.4,114.17-101.28,170.58-39.1s58.3,166.06-3.88,222.47Z"/><path class="cls-87" d="M1097.55,1817.11a103.86,103.86,0,0,1-147.88-8.47L605.06,1416.35c-55.32-63.1-50-164.95,12.12-221.24,67.69-61.3,172.43-52.42,227.75,10.69l249.8,283.13,755.19-685c62.17-56.38,113.19-102.3,169.57-40.14s57.46,165-4.7,221.41Z"/><path class="cls-88" d="M1096.66,1815.6a103.82,103.82,0,0,1-147.82-8.47L604.92,1415.64c-55.3-63.08-49.88-164,12.4-220.18,67-60.41,170.45-51.91,225.75,11.17L1094,1491l754.88-684.69C1911,750,1961.06,703,2017.42,765.17s56.61,164-5.52,220.35Z"/><path class="cls-89" d="M1095.77,1814.08A103.77,103.77,0,0,1,948,1805.62L604.78,1414.93c-55.28-63-49.71-163.13,12.67-219.11,66.33-59.54,168.49-51.41,223.76,11.64l252,285.67,754.56-684.4c62.12-56.34,111.21-104.33,167.55-42.22s55.77,163-6.34,219.3Z"/><path class="cls-90" d="M1094.88,1812.57a103.75,103.75,0,0,1-147.7-8.45l-342.54-389.9c-55.26-63-49.54-162.23,12.94-218,65.66-58.66,166.52-50.9,221.77,12.13l253.14,286.92,754.25-684.11c62.09-56.31,110.23-105.34,166.54-43.25s54.92,161.93-7.16,218.24Z"/><path class="cls-91" d="M1094,1811.06a103.7,103.7,0,0,1-147.63-8.45l-341.86-389.1c-55.23-63-49.46-161.44,13.23-217,64.87-57.89,164.54-50.39,219.77,12.61l254.25,288.19,753.94-683.83c62.07-56.28,109.24-106.34,165.53-44.28s54.08,160.89-8,217.18Z"/><path class="cls-92" d="M1093.09,1809.54a103.64,103.64,0,0,1-147.57-8.44L604.35,1412.8c-55.21-63-49.27-160.5,13.5-215.92,64.22-57,162.58-49.89,217.78,13.09L1091,1499.42l753.62-683.54c62-56.26,108.26-107.36,164.52-45.33s53.23,159.86-8.8,216.13Z"/><path class="cls-93" d="M1092.2,1808a103.61,103.61,0,0,1-147.51-8.44l-340.48-387.5C549,1349.15,555.14,1252.52,618,1197.23c63.57-56.07,160.61-49.38,215.79,13.57l256.48,290.72,753.31-683.26c62-56.24,107.27-108.37,163.51-46.36s52.39,158.83-9.61,215.07Z"/><path class="cls-94" d="M1091.31,1806.52a103.57,103.57,0,0,1-147.45-8.44l-339.8-386.7a151.51,151.51,0,1,1,227.86-199.74l257.59,292,753-683c62-56.21,106.28-109.38,162.5-47.39a151.51,151.51,0,0,1-10.43,214Z"/></g><path class="cls-95" d="M1091.31,1806.52a103.57,103.57,0,0,1-147.45-8.44L574.24,1376.44A151.51,151.51,0,1,1,802.1,1176.7L1038,1445.78l753-683a151.51,151.51,0,0,1,203.58,224.45Z"/><path class="cls-96" d="M1090.21,1799.63a103.46,103.46,0,0,1-147.32-8.43L575.44,1372.05a148.58,148.58,0,1,1,223.45-195.89l237.59,271L1791,762.83a148.58,148.58,0,0,1,199.64,220.11Z"/><path class="cls-97" d="M1089.12,1792.75a103.39,103.39,0,0,1-147.21-8.43L576.64,1367.65a145.65,145.65,0,1,1,219.05-192l239.28,273,756-685.72a145.65,145.65,0,1,1,195.71,215.77Z"/><path class="cls-98" d="M1088,1785.86a103.31,103.31,0,0,1-147.1-8.42l-363.1-414.19a142.73,142.73,0,0,1,214.65-188.17l241,274.88L1791,762.86a142.73,142.73,0,0,1,191.78,211.45Z"/><path class="cls-99" d="M1086.93,1779a103.24,103.24,0,0,1-147-8.41L579,1358.86a139.8,139.8,0,1,1,210.25-184.32L1032,1451.35,1791,762.88A139.8,139.8,0,0,1,1978.86,970Z"/><path class="cls-100" d="M1085.84,1772.1A103.15,103.15,0,0,1,939,1763.69L580.23,1354.46A136.88,136.88,0,1,1,786.08,1174l244.36,278.75L1791,762.9a136.88,136.88,0,1,1,183.92,202.77Z"/><path class="cls-101" d="M1084.74,1765.21a103.06,103.06,0,0,1-146.74-8.4L581.42,1350.06a133.95,133.95,0,0,1,201.45-176.6l246.06,280.68L1791,762.92a134,134,0,1,1,180,198.44Z"/><path class="cls-102" d="M1083.65,1758.33a103,103,0,0,1-146.63-8.4l-354.4-404.26a131,131,0,0,1,197-172.75l247.75,282.61L1791,762.93A131,131,0,0,1,1967.09,957Z"/><path class="cls-103" d="M1082.55,1751.44A102.9,102.9,0,0,1,936,1743.06L583.82,1341.27a128.1,128.1,0,0,1,192.65-168.89l249.44,284.55L1791,763a128.1,128.1,0,1,1,172.12,189.77Z"/><path class="cls-104" d="M1081.46,1744.56a102.83,102.83,0,0,1-146.4-8.38L585,1336.87a125.17,125.17,0,0,1,188.25-165l251.15,286.48L1791.05,763a125.18,125.18,0,0,1,168.19,185.44Z"/><path class="cls-105" d="M1080.36,1737.68a102.73,102.73,0,0,1-146.27-8.38L586.21,1332.47A122.25,122.25,0,0,1,770.06,1171.3l252.84,288.41L1791.05,763a122.25,122.25,0,1,1,164.26,181.1Z"/><path class="cls-106" d="M1079.27,1730.79a102.65,102.65,0,0,1-146.16-8.37l-345.7-394.34a119.32,119.32,0,0,1,179.45-157.32l254.53,290.34L1791.06,763a119.32,119.32,0,0,1,160.33,176.76Z"/><path class="cls-107" d="M1078.17,1723.91a102.57,102.57,0,0,1-146-8.36L588.6,1323.68a116.4,116.4,0,0,1,175-153.46l256.23,292.28L1791.06,763a116.4,116.4,0,1,1,156.4,172.43Z"/><path class="cls-108" d="M1077.08,1717a102.49,102.49,0,0,1-145.93-8.35L589.8,1319.28a113.47,113.47,0,0,1,170.65-149.6l257.92,294.21L1791.07,763a113.47,113.47,0,0,1,152.46,168.1Z"/><path class="cls-109" d="M1076,1710.14a102.4,102.4,0,0,1-145.8-8.35L591,1314.89a110.54,110.54,0,1,1,166.24-145.75l259.62,296.14,774.22-702.22a110.54,110.54,0,0,1,148.53,163.76Z"/><path class="cls-110" d="M1074.89,1703.25a102.32,102.32,0,0,1-145.69-8.33l-337-384.43A107.62,107.62,0,1,1,754,1168.61l261.31,298.06,775.73-703.59a107.61,107.61,0,1,1,144.6,159.42Z"/><path class="cls-111" d="M1073.79,1696.37A102.24,102.24,0,0,1,928.22,1688l-334.83-382a104.69,104.69,0,1,1,157.45-138l263,300,777.25-705a104.69,104.69,0,0,1,140.67,155.1Z"/><path class="cls-112" d="M1072.7,1689.49a102.16,102.16,0,0,1-145.46-8.33L594.59,1301.69a101.76,101.76,0,0,1,153-134.16l264.7,301.93,778.76-706.35a101.77,101.77,0,0,1,136.74,150.76Z"/><path class="cls-112" d="M1071.6,1682.6a102.08,102.08,0,0,1-145.34-8.32l-330.48-377A98.84,98.84,0,0,1,744.43,1167l266.39,303.86L1791.1,763.13a98.84,98.84,0,1,1,132.81,146.42Z"/><path class="cls-113" d="M1070.51,1675.72a102,102,0,0,1-145.22-8.31L597,1292.9a95.91,95.91,0,0,1,144.25-126.45l268.08,305.79,781.8-709.09A95.91,95.91,0,1,1,1920,905.24Z"/><path class="cls-114" d="M1069.41,1668.83a101.91,101.91,0,0,1-145.1-8.3l-326.13-372A93,93,0,1,1,738,1165.91l269.78,307.73,783.31-710.47a93,93,0,0,1,125,137.75Z"/><path class="cls-115" d="M1068.32,1662a101.83,101.83,0,0,1-145-8.3l-324-369.54a90.06,90.06,0,1,1,135.45-118.74L1006.29,1475l784.83-711.85a90.06,90.06,0,0,1,121,133.42Z"/><path class="cls-116" d="M1067.22,1655.07a101.75,101.75,0,0,1-144.87-8.3L600.57,1279.71a87.13,87.13,0,0,1,131-114.88l273.17,311.59L1791.12,763.2a87.14,87.14,0,1,1,117.09,129.09Z"/><path class="cls-117" d="M1066.13,1648.18a101.67,101.67,0,0,1-144.75-8.28L601.77,1275.31a84.21,84.21,0,0,1,126.64-111l274.86,313.53,787.86-714.6A84.21,84.21,0,1,1,1904.28,888Z"/><path class="cls-118" d="M1065,1641.3A101.58,101.58,0,0,1,920.4,1633L603,1270.92a81.29,81.29,0,1,1,122.25-107.17l276.55,315.46,789.38-716a81.28,81.28,0,0,1,109.21,120.41Z"/><path class="cls-119" d="M1063.94,1634.41a101.5,101.5,0,0,1-144.52-8.27L604.16,1266.52A78.36,78.36,0,1,1,722,1163.21l278.25,317.39,790.89-717.35a78.36,78.36,0,0,1,105.29,116.09Z"/><path class="cls-120" d="M1062.85,1627.53a101.43,101.43,0,0,1-144.41-8.27L605.36,1262.12a75.43,75.43,0,1,1,113.44-99.45L998.74,1482l792.41-718.72A75.43,75.43,0,1,1,1892.5,875Z"/><path class="cls-121" d="M1061.75,1620.64a101.32,101.32,0,0,1-144.28-8.25L606.55,1257.72a72.51,72.51,0,0,1,109.05-95.59l281.63,321.26,793.93-720.1a72.5,72.5,0,0,1,97.42,107.41Z"/><path class="cls-122" d="M1060.66,1613.76a101.26,101.26,0,0,1-144.17-8.25L607.75,1253.33a69.58,69.58,0,0,1,104.64-91.74l283.33,323.19,795.44-721.47a69.58,69.58,0,1,1,93.49,103.08Z"/><path class="cls-123" d="M1059.56,1606.88a101.17,101.17,0,0,1-144-8.25L609,1248.93a66.65,66.65,0,1,1,100.24-87.88l285,325.12,797-722.84a66.65,66.65,0,0,1,89.56,98.74Z"/><path class="cls-124" d="M1058.47,1600a101.1,101.1,0,0,1-143.94-8.24L610.14,1244.53a63.73,63.73,0,0,1,95.85-84l286.71,327,798.47-724.22a63.73,63.73,0,1,1,85.63,94.41Z"/><path class="cls-125" d="M1057.37,1593.11a101,101,0,0,1-143.82-8.23L611.34,1240.14A60.8,60.8,0,1,1,702.78,1160l288.41,329,800-725.6a60.81,60.81,0,0,1,81.7,90.08Z"/><path class="cls-126" d="M1056.28,1586.22a100.92,100.92,0,0,1-143.7-8.22l-300-342.26a57.87,57.87,0,1,1,87-76.3l290.1,330.91,801.51-727A57.87,57.87,0,0,1,1869,849.12Z"/><path class="cls-127" d="M1055.18,1579.34a100.84,100.84,0,0,1-143.58-8.22L613.73,1231.34a54.95,54.95,0,1,1,82.64-72.44l291.8,332.84,803-728.34A55,55,0,1,1,1865,844.8Z"/><path class="cls-128" d="M1054.09,1572.46a100.77,100.77,0,0,1-143.47-8.22l-295.69-337.3a52,52,0,0,1,78.24-68.58l293.49,334.78L1791.2,763.42a52,52,0,1,1,69.9,77.06Z"/><path class="cls-129" d="M1053,1565.57a100.68,100.68,0,0,1-143.35-8.2L616.13,1222.55A49.1,49.1,0,1,1,690,1157.82l295.18,336.71,806.05-731.1a49.1,49.1,0,1,1,66,72.74Z"/></g></g></g></svg>